<svg xmlns="http://www.w3.org/2000/svg" viewBox="0 0 15.532 15.529">
  <defs>
    <style>
      .cls-1 {
        fill: #6fc3ed;
        stroke: #6fc3ed;
        stroke-width: 0.4px;
      }
    </style>
  </defs>
  <g id="edit" transform="translate(0.201 0.172)">
    <path id="Path_4" data-name="Path 4" class="cls-1" d="M14.151,1.007a3.337,3.337,0,0,0-4.723,0L.769,9.664a.433.433,0,0,0-.123.248L0,14.664a.432.432,0,0,0,.123.364.44.44,0,0,0,.306.129.35.35,0,0,0,.058,0l2.863-.387a.436.436,0,0,0-.116-.864l-2.3.309L1.391,10.9l3.488,3.488a.44.44,0,0,0,.306.129.427.427,0,0,0,.306-.129l8.66-8.656a3.335,3.335,0,0,0,0-4.723ZM9.6,2.071,11.05,3.525l-7.9,7.9L1.694,9.973ZM5.189,13.465,3.767,12.043l7.9-7.9,1.422,1.422ZM13.7,4.94,10.218,1.462A2.471,2.471,0,0,1,13.7,4.94Z" transform="translate(0)"/>
  </g>
</svg>
