<svg xmlns="http://www.w3.org/2000/svg" viewBox="0 0 37.655 28.6">
  <defs>
    <style>
      .cls-1 {
        fill: #6fc3ed;
      }
    </style>
  </defs>
  <g id="logout" transform="translate(0 -58.95)">
    <g id="Group_4718" data-name="Group 4718" transform="translate(0 58.95)">
      <path id="Path_1363" data-name="Path 1363" class="cls-1" d="M0,63.719V82.781A4.779,4.779,0,0,0,4.769,87.55H20.175a4.779,4.779,0,0,0,4.769-4.769V79.693a.945.945,0,0,0-1.889,0v3.087a2.894,2.894,0,0,1-2.888,2.888H4.769a2.894,2.894,0,0,1-2.888-2.888V63.719a2.894,2.894,0,0,1,2.888-2.888H20.175a2.894,2.894,0,0,1,2.888,2.888v3.087a.945.945,0,0,0,1.889,0V63.719a4.779,4.779,0,0,0-4.769-4.769H4.769A4.774,4.774,0,0,0,0,63.719Z" transform="translate(0 -58.95)"/>
      <path id="Path_1364" data-name="Path 1364" class="cls-1" d="M220.055,163.442a.946.946,0,0,0,1.336,0L227.834,157a.936.936,0,0,0,0-1.329l-6.443-6.443a.939.939,0,0,0-1.329,1.329l4.838,4.838H207.245a.945.945,0,0,0,0,1.889h17.648l-4.838,4.838A.927.927,0,0,0,220.055,163.442Z" transform="translate(-190.456 -142.038)"/>
    </g>
  </g>
</svg>
