<svg xmlns="http://www.w3.org/2000/svg" viewBox="0 0 231.248 46.25">
  <defs>
    <style>
      .cls-1 {
        fill: #3aaa35;
        fill-rule: evenodd;
      }
    </style>
  </defs>
  <path id="Icons-Logo" class="cls-1" d="M226.617,18.157h4.631V38.015h-4.631V29.976h-10.2v8.039h-4.743V18.157h4.743v7.525h10.2ZM96.642,21.387c0-2.092,1.2-3.23,2.913-3.12h14.417v4.148H101.8c-.411,0-.411.257-.411.514v2.863h12.288v4.038H101.385v3.524c0,.367,0,.514.411.514h12.176v4.148H99.555c-1.718,0-2.913-1.138-2.913-3.231Zm37.573-3.23v4.258H122.04c-.411,0-.411.257-.411.514V38.015h-4.594V21.387c0-2.056,1.045-3.23,2.763-3.23Zm8.964-.4a3.951,3.951,0,0,1,4,2.716l7.918,17.656h-5.154l-1.718-4.148H138.174l-1.718,4.148H131.3l7.918-17.656A4.059,4.059,0,0,1,143.179,17.753Zm-3.436,12.076h6.873l-3.026-7.158c-.149-.4-.262-.4-.411-.4s-.262,0-.411.4ZM174.4,15.036c7.4,0,10.308,3.23,10.346,10.278,0,6.9-3.025,10.278-10.308,10.278h-2.129V38.2h-4.893V35.592h-2.129c-7.283,0-10.309-3.377-10.309-10.278,0-7.048,2.913-10.278,10.309-10.278Zm-7.022,16.224V19.294h-2.129c-4.37,0-5.565,1.835-5.565,5.983s1.083,5.983,5.565,5.983Zm7.022,0c4.333,0,5.528-1.835,5.565-6.093,0-4.148-1.083-5.983-5.565-5.983h-2.129V31.261ZM89.247,14.633c2.764,0,4.37,1.542,4.37,4.955V38.161H88.724V20.1L82.263,35.3c-.934,2.056-2.129,3.23-4.108,3.23s-3.324-1.138-4.108-3.23L67.584,20.1V37.9H62.692V19.441c0-3.414,1.718-4.955,4.37-4.955,2.241,0,3.7,1.321,4.743,3.781l6.349,15.086L84.5,18.413C85.549,15.917,87.006,14.633,89.247,14.633Zm109.582,3.23c7.432,0,10.308,3.267,10.159,10.278,0,6.9-3.026,10.278-10.309,10.278h-1.569c-7.283,0-10.308-3.377-10.308-10.278,0-7.048,2.913-10.278,10.308-10.278Zm-.112,16.261c4.482,0,5.677-1.835,5.565-5.983,0-4.148-1.083-5.983-5.565-5.983h-1.569c-4.37,0-5.565,1.835-5.565,5.983s1.083,5.983,5.565,5.983ZM23.53,24.162a.341.341,0,0,1-.149.257H20.355a2.026,2.026,0,0,0-1.979,1.945V47.03c-.112,0-.373-.147-.523-.147A23.192,23.192,0,0,1,0,24.419,23.357,23.357,0,0,1,23.007,1.294h.523Zm-4.594-3.634a2.717,2.717,0,1,0-2.764-2.716A2.781,2.781,0,0,0,18.936,20.528Zm8.03-19.381A23.209,23.209,0,0,1,47.1,24.125,23.375,23.375,0,0,1,23.567,47.25c-.672,0-1.345-.146-1.867-.146h-.523v-20a.278.278,0,0,1,.261-.257h3.025a2.026,2.026,0,0,0,1.98-1.945V1A.766.766,0,0,1,26.966,1.147Zm-1.046,35.2a2.834,2.834,0,0,0,2.764-2.716,2.764,2.764,0,1,0-2.764,2.716Zm6.872,0a2.717,2.717,0,1,0-2.764-2.716A2.733,2.733,0,0,0,32.792,36.348Zm9.673-2.826A2.764,2.764,0,1,0,39.7,36.238,2.734,2.734,0,0,0,42.466,33.522Z" transform="translate(0 -1)"/>
</svg>
